SplineFontDB: 3.0
FontName: Untitled1
FullName: Untitled1
FamilyName: Untitled1
Weight: Regular
Copyright: Copyright (c) 2019, Alexandr Krivonos
UComments: "2019-6-27: Created with FontForge (http://fontforge.org)"
Version: 001.000
ItalicAngle: 0
UnderlinePosition: -100
UnderlineWidth: 50
Ascent: 800
Descent: 200
InvalidEm: 0
LayerCount: 2
Layer: 0 0 "Back" 1
Layer: 1 0 "Fore" 0
XUID: [1021 690 -1123083875 9799167]
StyleMap: 0x0000
FSType: 0
OS2Version: 0
OS2_WeightWidthSlopeOnly: 0
OS2_UseTypoMetrics: 1
CreationTime: 1561623301
ModificationTime: 1564557878
OS2TypoAscent: 0
OS2TypoAOffset: 1
OS2TypoDescent: 0
OS2TypoDOffset: 1
OS2TypoLinegap: 90
OS2WinAscent: 0
OS2WinAOffset: 1
OS2WinDescent: 0
OS2WinDOffset: 1
HheadAscent: 0
HheadAOffset: 1
HheadDescent: 0
HheadDOffset: 1
OS2Vendor: 'PfEd'
DEI: 91125
Encoding: ISO8859-1
UnicodeInterp: none
NameList: AGL For New Fonts
DisplaySize: -48
AntiAlias: 1
FitToEm: 0
WinInfo: 44 22 7
BeginChars: 256 31

StartChar: A
Encoding: 65 65 0
Width: 1000
VWidth: 0
Flags: H
LayerCount: 2
Fore
SplineSet
428.571289062 800 m 1
 571.428710938 800 l 1
 571.428710938 371.428710938 l 1
 1000 371.428710938 l 1
 1000 228.571289062 l 1
 571.428710938 228.571289062 l 1
 571.428710938 -200 l 1
 428.571289062 -200 l 1
 428.571289062 228.571289062 l 1
 0 228.571289062 l 1
 0 371.428710938 l 1
 428.571289062 371.428710938 l 1
 428.571289062 800 l 1
EndSplineSet
Validated: 1
EndChar

StartChar: B
Encoding: 66 66 1
Width: 1000
VWidth: 0
Flags: H
LayerCount: 2
Fore
SplineSet
0 550 m 1
 0 550 l 1
 0 800 l 1
 250 800 l 1
 250 550 l 1
 0 550 l 1
375 -200 m 1
 375 -200 l 1
 375 50 l 1
 625 50 l 1
 625 -200 l 1
 375 -200 l 1
0 -200 m 1
 0 -200 l 1
 0 50 l 1
 250 50 l 1
 250 -200 l 1
 0 -200 l 1
0 175 m 1
 0 175 l 1
 0 425 l 1
 250 425 l 1
 250 175 l 1
 0 175 l 1
375 175 m 1
 375 175 l 1
 375 425 l 1
 625 425 l 1
 625 175 l 1
 375 175 l 1
750 800 m 1
 750 800 l 1
 1000 800 l 1
 1000 550 l 1
 750 550 l 1
 750 800 l 1
375 550 m 1
 375 550 l 1
 375 800 l 1
 625 800 l 1
 625 550 l 1
 375 550 l 1
750 175 m 1
 750 175 l 1
 750 425 l 1
 1000 425 l 1
 1000 175 l 1
 750 175 l 1
750 -200 m 1
 750 -200 l 1
 750 50 l 1
 1000 50 l 1
 1000 -200 l 1
 750 -200 l 1
EndSplineSet
Validated: 5
EndChar

StartChar: C
Encoding: 67 67 2
Width: 1000
VWidth: 0
Flags: HW
LayerCount: 2
Fore
SplineSet
0 640 m 1
 1000 640 l 1
 500 140 l 1
 0 640 l 1
EndSplineSet
Validated: 1
EndChar

StartChar: D
Encoding: 68 68 3
Width: 1000
VWidth: 0
Flags: H
LayerCount: 2
Fore
SplineSet
0 140 m 1
 500 640 l 1
 1000 140 l 1
 0 140 l 1
EndSplineSet
Validated: 1
EndChar

StartChar: E
Encoding: 69 69 4
Width: 1000
VWidth: 0
Flags: H
LayerCount: 2
Fore
SplineSet
500 800 m 1
 1000 300 l 1
 500 -200 l 1
 412.5 -112.5 l 1
 762.5 237.5 l 1
 0 237.5 l 1
 0 362.5 l 1
 762.5 362.5 l 1
 412.5 712.5 l 1
 500 800 l 1
EndSplineSet
Validated: 1
EndChar

StartChar: F
Encoding: 70 70 5
Width: 1000
VWidth: 0
Flags: H
LayerCount: 2
Fore
SplineSet
1000 362.5 m 1
 1000 237.5 l 1
 237.5 237.5 l 1
 587.5 -112.5 l 1
 500 -200 l 1
 0 300 l 1
 500 800 l 1
 587.5 712.5 l 1
 237.5 362.5 l 1
 1000 362.5 l 1
EndSplineSet
Validated: 1
EndChar

StartChar: G
Encoding: 71 71 6
Width: 1000
VWidth: 0
Flags: H
LayerCount: 2
Fore
SplineSet
333.333007812 177.77734375 m 1
 922.221679688 766.666992188 l 1
 1000 688.888671875 l 1
 333.333007812 22.22265625 l 1
 22.2216796875 333.333007812 l 1
 100 411.111328125 l 1
 333.333007812 177.77734375 l 1
EndSplineSet
Validated: 1
EndChar

StartChar: H
Encoding: 72 72 7
Width: 1000
VWidth: 0
Flags: H
LayerCount: 2
Fore
SplineSet
616.666992188 683.333007812 m 1
 233.333007812 300 l 1
 616.666992188 -83.3330078125 l 1
 500 -200 l 1
 -0 300 l 1
 500 800 l 1
 616.666992188 683.333007812 l 1
EndSplineSet
Validated: 1
EndChar

StartChar: I
Encoding: 73 73 8
Width: 1000
VWidth: 0
Flags: H
LayerCount: 2
Fore
SplineSet
49.998046875 683.333007812 m 1
 166.665039062 800 l 1
 666.665039062 300 l 1
 166.665039062 -200 l 1
 49.998046875 -83.3330078125 l 1
 433.331054688 300 l 1
 49.998046875 683.333007812 l 1
EndSplineSet
Validated: 1
EndChar

StartChar: J
Encoding: 74 74 9
Width: 1000
VWidth: 0
Flags: H
LayerCount: 2
Fore
SplineSet
1000 700 m 1
 600 300 l 1
 1000 -100 l 1
 900 -200 l 1
 500 200 l 1
 100 -200 l 1
 -0 -100 l 1
 400 300 l 1
 -0 700 l 1
 100 800 l 1
 500 400 l 1
 900 800 l 1
 1000 700 l 1
EndSplineSet
Validated: 1
EndChar

StartChar: K
Encoding: 75 75 10
Width: 1000
VWidth: 0
Flags: H
LayerCount: 2
Fore
SplineSet
500 700 m 1
 1000 200 l 1
 883.333007812 83.3330078125 l 1
 500 466.666992188 l 1
 116.666992188 83.3330078125 l 1
 0 200 l 1
 500 700 l 1
EndSplineSet
Validated: 1
EndChar

StartChar: L
Encoding: 76 76 11
Width: 1000
VWidth: 0
Flags: H
LayerCount: 2
Fore
SplineSet
883.333007812 670.001953125 m 1
 1000 553.334960938 l 1
 500 53.3349609375 l 1
 0 553.334960938 l 1
 116.666992188 670.001953125 l 1
 500 286.668945312 l 1
 883.333007812 670.001953125 l 1
EndSplineSet
Validated: 1
EndChar

StartChar: M
Encoding: 77 77 12
Width: 1000
VWidth: 0
Flags: H
LayerCount: 2
Fore
SplineSet
500 633.333007812 m 1
 537.22265625 729.555664062 641.388671875 800 750 800 c 0
 891.27734375 800 1000 692.666992188 1000 550 c 0
 1000 353.944335938 789.27734375 202.333007812 500 -88.888671875 c 1
 210.72265625 202.333007812 0 353.944335938 0 550 c 0
 0 692.666992188 108.72265625 800 250 800 c 0
 358.5 800 462.77734375 729.555664062 500 633.333007812 c 1
EndSplineSet
Validated: 1
EndChar

StartChar: N
Encoding: 78 78 13
Width: 1000
VWidth: 0
Flags: H
LayerCount: 2
Fore
SplineSet
0 14.2861328125 m 1
 0 14.2861328125 l 1
 0 157.142578125 l 1
 357.142578125 157.142578125 l 1
 357.142578125 -200 l 1
 214.286132812 -200 l 1
 214.286132812 14.2861328125 l 1
 0 14.2861328125 l 1
214.286132812 585.713867188 m 1
 214.286132812 585.713867188 l 1
 214.286132812 800 l 1
 357.142578125 800 l 1
 357.142578125 442.857421875 l 1
 0 442.857421875 l 1
 0 585.713867188 l 1
 214.286132812 585.713867188 l 1
642.857421875 -200 m 1
 642.857421875 -200 l 1
 642.857421875 157.142578125 l 1
 1000 157.142578125 l 1
 1000 14.2861328125 l 1
 785.713867188 14.2861328125 l 1
 785.713867188 -200 l 1
 642.857421875 -200 l 1
785.713867188 585.713867188 m 1
 785.713867188 585.713867188 l 1
 1000 585.713867188 l 1
 1000 442.857421875 l 1
 642.857421875 442.857421875 l 1
 642.857421875 800 l 1
 785.713867188 800 l 1
 785.713867188 585.713867188 l 1
EndSplineSet
Validated: 5
EndChar

StartChar: O
Encoding: 79 79 14
Width: 1000
VWidth: 0
Flags: H
LayerCount: 2
Fore
SplineSet
142.857421875 157.142578125 m 1
 142.857421875 157.142578125 l 1
 142.857421875 -57.142578125 l 1
 357.142578125 -57.142578125 l 1
 357.142578125 -200 l 1
 0 -200 l 1
 0 157.142578125 l 1
 142.857421875 157.142578125 l 1
0 442.857421875 m 1
 0 442.857421875 l 1
 0 800 l 1
 357.142578125 800 l 1
 357.142578125 657.142578125 l 1
 142.857421875 657.142578125 l 1
 142.857421875 442.857421875 l 1
 0 442.857421875 l 1
857.142578125 -57.142578125 m 1
 857.142578125 -57.142578125 l 1
 857.142578125 157.142578125 l 1
 1000 157.142578125 l 1
 1000 -200 l 1
 642.857421875 -200 l 1
 642.857421875 -57.142578125 l 1
 857.142578125 -57.142578125 l 1
642.857421875 800 m 1
 642.857421875 800 l 1
 1000 800 l 1
 1000 442.857421875 l 1
 857.142578125 442.857421875 l 1
 857.142578125 657.142578125 l 1
 642.857421875 657.142578125 l 1
 642.857421875 800 l 1
EndSplineSet
Validated: 5
EndChar

StartChar: P
Encoding: 80 80 15
Width: 1000
VWidth: 0
Flags: H
LayerCount: 2
Fore
SplineSet
0 -5.6669921875 m 5
 0 -5.6669921875 l 5
 0 105.444335938 l 5
 1000 105.444335938 l 5
 1000 -5.6669921875 l 5
 0 -5.6669921875 l 5
0 272.111328125 m 5
 0 272.111328125 l 5
 0 383.22265625 l 5
 1000 383.22265625 l 5
 1000 272.111328125 l 5
 0 272.111328125 l 5
0 661 m 5
 0 661 l 5
 1000 661 l 5
 1000 549.888671875 l 5
 0 549.888671875 l 5
 0 661 l 5
EndSplineSet
Validated: 5
EndChar

StartChar: Q
Encoding: 81 81 16
Width: 1000
VWidth: 0
Flags: H
LayerCount: 2
Fore
SplineSet
125 550 m 1
 125 550 l 1
 56.25 550 0 606.25 0 675 c 0
 0 743.75 56.25 800 125 800 c 0
 193.75 800 250 743.75 250 675 c 0
 250 606.25 193.75 550 125 550 c 1
125 425 m 1
 125 425 l 1
 193.75 425 250 368.75 250 300 c 0
 250 231.25 193.75 175 125 175 c 0
 56.25 175 0 231.25 0 300 c 0
 0 368.75 56.25 425 125 425 c 1
125 50 m 1
 125 50 l 1
 193.75 50 250 -6.25 250 -75 c 0
 250 -143.75 193.75 -200 125 -200 c 0
 56.25 -200 0 -143.75 0 -75 c 0
 0 -6.25 56.25 50 125 50 c 1
EndSplineSet
Validated: 5
EndChar

StartChar: R
Encoding: 82 82 17
Width: 1000
VWidth: 0
Flags: H
LayerCount: 2
Fore
SplineSet
500 800 m 0
 637.5 800 762.5 737.5 875 675 c 2
 1000 800 l 1
 1000 362.5 l 1
 562.5 362.5 l 1
 750 550 l 2
 693.75 631.25 606.25 675 500 675 c 0
 293.75 675 125 506.25 125 300 c 0
 125 93.75 293.75 -75 500 -75 c 0
 662.5 -75 800 31.25 875 175 c 2
 1000 175 l 2
 925 -37.5 731.25 -200 500 -200 c 0
 225 -200 0 25 0 300 c 0
 0 575 225 800 500 800 c 0
EndSplineSet
Validated: 1
EndChar

StartChar: S
Encoding: 83 83 18
Width: 1000
VWidth: 0
Flags: H
LayerCount: 2
Fore
SplineSet
694.444335938 188.888671875 m 1
 971.666992188 -88.888671875 l 1
 888.888671875 -171.666992188 l 1
 611.111328125 105.555664062 l 1
 611.111328125 149.444335938 l 1
 596.111328125 165 l 2
 532.77734375 110.555664062 450.555664062 77.77734375 361.111328125 77.77734375 c 0
 161.666992188 77.77734375 0 239.444335938 0 438.888671875 c 0
 0 638.333007812 161.666992188 800 361.111328125 800 c 0
 560.555664062 800 722.22265625 638.333007812 722.22265625 438.888671875 c 0
 722.22265625 349.444335938 689.444335938 267.22265625 635 203.888671875 c 2
 650.555664062 188.888671875 l 1
 694.444335938 188.888671875 l 1
361.111328125 188.888671875 m 0
 499.444335938 188.888671875 611.111328125 300.555664062 611.111328125 438.888671875 c 0
 611.111328125 577.22265625 499.444335938 688.888671875 361.111328125 688.888671875 c 0
 222.77734375 688.888671875 111.111328125 577.22265625 111.111328125 438.888671875 c 0
 111.111328125 300.555664062 222.77734375 188.888671875 361.111328125 188.888671875 c 0
EndSplineSet
Validated: 1
EndChar

StartChar: T
Encoding: 84 84 19
Width: 1000
VWidth: 0
Flags: H
LayerCount: 2
Fore
SplineSet
500 800 m 0
 224 800 0 576 0 300 c 0
 0 24 224 -200 500 -200 c 0
 776 -200 1000 24 1000 300 c 0
 1000 576 776 800 500 800 c 0
500 650 m 0
 583 650 650 583 650 500 c 0
 650 417 583 350 500 350 c 0
 417 350 350 417 350 500 c 0
 350 583 417 650 500 650 c 0
500 -60 m 0
 375 -60 264.5 4 200 101 c 0
 201.5 200.5 400 255 500 255 c 0
 599.5 255 798.5 200.5 800 101 c 0
 735.5 4 625 -60 500 -60 c 0
EndSplineSet
Validated: 9
EndChar

StartChar: U
Encoding: 85 85 20
Width: 1000
VWidth: 0
Flags: H
LayerCount: 2
Fore
SplineSet
790 800 m 5
 890 800 l 5
 890 700 l 5
 940 700 l 6
 995 700 1040 655 1040 600 c 6
 1040 -100 l 6
 1040 -155 995 -200 940 -200 c 6
 240 -200 l 6
 184.5 -200 140 -155 140 -100 c 6
 140.5 600 l 6
 140.5 655 184.5 700 240 700 c 6
 290 700 l 5
 290 800 l 5
 390 800 l 5
 390 700 l 5
 790 700 l 5
 790 800 l 5
940 -100 m 5
 940 450 l 5
 240 450 l 5
 240 -100 l 5
 940 -100 l 5
415 400 m 4
 484.03515625 400 540 344.03515625 540 275 c 4
 540 205.96484375 484.03515625 150 415 150 c 4
 345.96484375 150 290 205.96484375 290 275 c 4
 290 344.03515625 345.96484375 400 415 400 c 4
EndSplineSet
Validated: 1
EndChar

StartChar: V
Encoding: 86 86 21
Width: 1000
VWidth: 0
Flags: H
LayerCount: 2
Fore
SplineSet
468.333007812 358.888671875 m 1
 468.333007812 358.888671875 l 1
 491.111328125 308.888671875 520 267.77734375 553.333007812 239.444335938 c 0
 560 233.333007812 567.77734375 227.22265625 576.111328125 221.666992188 c 1
 527.77734375 212.77734375 461.111328125 197.22265625 390.555664062 170 c 1
 390.555664062 170 l 1
 384.444335938 167.77734375 l 2
 388.888671875 184.444335938 401.111328125 204.444335938 412.22265625 225.555664062 c 0
 437.22265625 273.888671875 455.555664062 317.77734375 468.333007812 358.888671875 c 1
828.333007812 147.22265625 m 1
 828.333007812 147.22265625 l 1
 838.333007812 157.22265625 843.333007812 170 843.888671875 183.888671875 c 0
 845.555664062 195 842.77734375 205.555664062 837.22265625 214.444335938 c 0
 821.111328125 240.555664062 779.444335938 252.77734375 710.555664062 252.77734375 c 0
 687.77734375 252.77734375 663.888671875 251.666992188 638.888671875 248.888671875 c 0
 621.111328125 258.888671875 605 270 590.555664062 281.111328125 c 0
 555.555664062 310 523.888671875 360.555664062 501.666992188 423.333007812 c 0
 502.22265625 425 502.77734375 427.77734375 503.888671875 431.111328125 c 0
 522.22265625 505 539.444335938 594.444335938 502.77734375 631.111328125 c 0
 493.888671875 640 481.666992188 644.444335938 468.888671875 644.444335938 c 2
 455.555664062 644.444335938 l 2
 435 644.444335938 416.666992188 622.77734375 411.666992188 601.666992188 c 0
 391.111328125 527.77734375 403.333007812 487.22265625 423.888671875 420 c 2
 423.888671875 419.444335938 l 2
 410 370.555664062 392.22265625 313.888671875 363.888671875 256.666992188 c 0
 345 219.444335938 327.22265625 185.555664062 310.555664062 156.666992188 c 0
 288.333007812 146.111328125 271.666992188 137.22265625 261.111328125 129.444335938 c 0
 194.444335938 87.77734375 162.77734375 41.111328125 156.666992188 11.6669921875 c 0
 154.444335938 1.111328125 155.555664062 -8.3330078125 159.444335938 -18.3330078125 c 2
 161.111328125 -21.111328125 l 1
 187.77734375 -38.3330078125 l 2
 194.444335938 -42.22265625 203.333007812 -44.4443359375 212.22265625 -44.4443359375 c 0
 257.22265625 -44.4443359375 308.333007812 8.3330078125 377.22265625 126.111328125 c 0
 381.111328125 127.77734375 384.444335938 128.888671875 387.22265625 130 c 0
 444.444335938 148.333007812 515.555664062 161.111328125 611.111328125 171.666992188 c 0
 666.666992188 143.333007812 735.555664062 130.555664062 777.77734375 130.555664062 c 0
 802.22265625 130.555664062 818.888671875 136.666992188 828.333007812 147.22265625 c 1
888.888671875 800 m 1
 888.888671875 800 l 1
 950 800 1000 750.555664062 1000 688.888671875 c 2
 1000 -88.888671875 l 2
 1000 -150.25390625 950.25390625 -200 888.888671875 -200 c 2
 111.111328125 -200 l 2
 49.74609375 -200 -0 -150.25390625 -0 -88.888671875 c 2
 -0 688.888671875 l 2
 -0 750.555664062 49.4443359375 800 111.111328125 800 c 2
 888.888671875 800 l 1
805.555664062 186.666992188 m 1
 805.555664062 186.666992188 l 1
 808.333007812 184.444335938 809.444335938 182.22265625 810.555664062 180.555664062 c 0
 810 175 808.333007812 174.444335938 805.555664062 173.333007812 c 2
 803.333007812 173.333007812 l 2
 800 172.77734375 796.666992188 172.22265625 792.77734375 172.22265625 c 0
 767.22265625 172.22265625 727.77734375 182.77734375 687.22265625 200.555664062 c 1
 692.22265625 206.111328125 696.111328125 206.111328125 700 206.111328125 c 0
 777.77734375 206.111328125 800 192.22265625 805.555664062 186.666992188 c 1
296.111328125 105.555664062 m 1
 296.111328125 105.555664062 l 1
 260 39.4443359375 227.22265625 2.77734375 202.22265625 -5.5556640625 c 1
 205 15.5556640625 230 52.22265625 269.444335938 88.3330078125 c 0
 275 92.77734375 284.444335938 98.888671875 296.111328125 105.555664062 c 1
463.888671875 489.444335938 m 2
 451.111328125 539.444335938 450.555664062 580 460 603.333007812 c 0
 461.111328125 605.555664062 462.77734375 608.333007812 463.888671875 610 c 2
 472.22265625 607.22265625 l 2
 481.666992188 593.888671875 482.77734375 577.77734375 477.22265625 546.111328125 c 2
 475.555664062 537.22265625 l 2
 472.22265625 525 470.555664062 509.444335938 466.666992188 491.666992188 c 2
 463.888671875 489.444335938 l 2
EndSplineSet
Validated: 37
EndChar

StartChar: W
Encoding: 87 87 22
Width: 1000
VWidth: 0
Flags: H
LayerCount: 2
Fore
SplineSet
125 258.333007812 m 1
 125 341.666992188 l 1
 208.333007812 341.666992188 l 1
 208.333007812 258.333007812 l 1
 125 258.333007812 l 1
125 91.6669921875 m 1
 125 175 l 1
 208.333007812 175 l 1
 208.333007812 91.6669921875 l 1
 125 91.6669921875 l 1
125 425 m 1
 125 508.333007812 l 1
 208.333007812 508.333007812 l 1
 208.333007812 425 l 1
 125 425 l 1
291.666992188 258.333007812 m 1
 291.666992188 341.666992188 l 1
 875 341.666992188 l 1
 875 258.333007812 l 1
 291.666992188 258.333007812 l 1
291.666992188 91.6669921875 m 1
 291.666992188 175 l 1
 875 175 l 1
 875 91.6669921875 l 1
 291.666992188 91.6669921875 l 1
291.666992188 508.333007812 m 1
 875 508.333007812 l 1
 875 425 l 1
 291.666992188 425 l 1
 291.666992188 508.333007812 l 1
EndSplineSet
Validated: 1
EndChar

StartChar: X
Encoding: 88 88 23
Width: 1000
VWidth: 0
Flags: H
LayerCount: 2
Fore
SplineSet
681.818359375 363.272460938 m 0
 606.36328125 363.272460938 545.454101562 424.181640625 545.454101562 499.63671875 c 0
 545.454101562 575.090820312 606.36328125 636 681.818359375 636 c 0
 757.272460938 636 817.727539062 575.090820312 817.727539062 499.63671875 c 0
 817.727539062 424.181640625 757.272460938 363.272460938 681.818359375 363.272460938 c 0
318.181640625 363.272460938 m 0
 242.727539062 363.272460938 181.818359375 424.181640625 181.818359375 499.63671875 c 0
 181.818359375 575.090820312 242.727539062 636 318.181640625 636 c 0
 393.63671875 636 454.090820312 575.090820312 454.090820312 499.63671875 c 0
 454.090820312 424.181640625 393.63671875 363.272460938 318.181640625 363.272460938 c 0
318.181640625 272.36328125 m 0
 424.090820312 272.36328125 636.36328125 219.181640625 636.36328125 113.272460938 c 2
 636.36328125 -0.36328125 l 1
 0 -0.36328125 l 1
 0 113.272460938 l 2
 0 219.181640625 212.272460938 272.36328125 318.181640625 272.36328125 c 0
681.818359375 272.36328125 m 0
 787.727539062 272.36328125 1000 219.181640625 1000 113.272460938 c 2
 1000 -0.36328125 l 1
 727.272460938 -0.36328125 l 1
 727.272460938 113.272460938 l 2
 727.272460938 180.545898438 690.454101562 231.909179688 637.727539062 270.090820312 c 1
 653.63671875 271.454101562 668.63671875 272.36328125 681.818359375 272.36328125 c 0
EndSplineSet
Validated: 1
EndChar

StartChar: Y
Encoding: 89 89 24
Width: 1000
VWidth: 0
Flags: H
LayerCount: 2
Fore
SplineSet
500 800 m 0
 776 800 1000 576 1000 300 c 0
 1000 24 776 -200 500 -200 c 0
 224 -200 0 24 0 300 c 0
 0 576 224 800 500 800 c 0
550 50 m 1
 550 350 l 1
 450 350 l 1
 450 50 l 1
 550 50 l 1
550 450 m 1
 550 550 l 1
 450 550 l 1
 450 450 l 1
 550 450 l 1
EndSplineSet
Validated: 1
EndChar

StartChar: Z
Encoding: 90 90 25
Width: 1000
VWidth: 0
Flags: H
LayerCount: 2
Fore
SplineSet
500 36.5 m 1
 191 -150 l 1
 273 201.5 l 1
 0 438 l 1
 359.5 468.5 l 1
 500 800 l 1
 640.5 468.5 l 1
 1000 438 l 1
 727 201.5 l 1
 809 -150 l 1
 500 36.5 l 1
EndSplineSet
Validated: 1
EndChar

StartChar: a
Encoding: 97 97 26
Width: 1000
VWidth: 0
Flags: H
LayerCount: 2
Fore
SplineSet
580 800 m 4
 773.5 800 930 643.5 930 450 c 4
 930 187.5 580 -200 580 -200 c 5
 580 -200 230 187.5 230 450 c 4
 230 643.5 386.5 800 580 800 c 4
580 325 m 4
 649 325 705 381 705 450 c 4
 705 519 649 575 580 575 c 4
 511 575 455 519 455 450 c 4
 455 381 511 325 580 325 c 4
EndSplineSet
Validated: 1
EndChar

StartChar: b
Encoding: 98 98 27
Width: 1000
VWidth: 0
Flags: H
LayerCount: 2
Fore
SplineSet
940 700 m 6
 995 700 1040 655 1040 600 c 6
 1040 -100 l 6
 1040 -155 995 -200 940 -200 c 6
 240 -200 l 6
 184.5 -200 140 -155 140 -100 c 6
 140.5 600 l 6
 140.5 655 184.5 700 240 700 c 6
 290 700 l 5
 290 800 l 5
 390 800 l 5
 390 700 l 5
 790 700 l 5
 790 800 l 5
 890 800 l 5
 890 700 l 5
 940 700 l 6
940 -100 m 5
 940 450 l 5
 240 450 l 5
 240 -100 l 5
 940 -100 l 5
EndSplineSet
Validated: 1
EndChar

StartChar: c
Encoding: 99 99 28
Width: 1000
VWidth: 0
Flags: H
LayerCount: 2
Fore
SplineSet
400 -180 m 5
 150 -180 l 5
 150 220 l 5
 0 220 l 5
 500 670 l 5
 1000 220 l 5
 850 220 l 5
 850 -180 l 5
 600 -180 l 5
 600 120 l 5
 400 120 l 5
 400 -180 l 5
EndSplineSet
Validated: 1
EndChar

StartChar: d
Encoding: 100 100 29
Width: 1000
VWidth: 0
Flags: H
LayerCount: 2
Fore
SplineSet
388.888671875 3.3330078125 m 1
 388.888671875 114.444335938 l 1
 611.111328125 114.444335938 l 1
 611.111328125 3.3330078125 l 1
 388.888671875 3.3330078125 l 1
0 670 m 1
 1000 670 l 1
 1000 558.888671875 l 1
 0 558.888671875 l 1
 0 670 l 1
166.666992188 281.111328125 m 1
 166.666992188 392.22265625 l 1
 833.333007812 392.22265625 l 1
 833.333007812 281.111328125 l 1
 166.666992188 281.111328125 l 1
EndSplineSet
EndChar

StartChar: e
Encoding: 101 101 30
Width: 1000
VWidth: 0
Flags: H
LayerCount: 2
Fore
SplineSet
277.77734375 642.77734375 m 1
 101.666992188 466.666992188 l 1
 22.77734375 545 l 1
 277.77734375 800 l 1
 532.22265625 545 l 1
 453.888671875 466.666992188 l 1
 277.77734375 642.77734375 l 1
277.77734375 -42.77734375 m 1
 453.888671875 133.333007812 l 1
 532.77734375 55 l 1
 277.77734375 -200 l 1
 23.3330078125 55 l 1
 101.666992188 133.333007812 l 1
 277.77734375 -42.77734375 l 1
EndSplineSet
EndChar
